<svg xmlns:dc="http://purl.org/dc/elements/1.1/" xmlns:cc="http://creativecommons.org/ns#" xmlns:rdf="http://www.w3.org/1999/02/22-rdf-syntax-ns#" xmlns:svg="http://www.w3.org/2000/svg" xmlns="http://www.w3.org/2000/svg" xmlns:xlink="http://www.w3.org/1999/xlink" viewBox="0 0 4369.1333 3424.2534" height="3424.2534" width="4369.1333" xml:space="preserve" id="svg2" version="1.1"><metadata id="metadata8"><rdf:RDF><cc:Work rdf:about=""><dc:format>image/svg+xml</dc:format><dc:type rdf:resource="http://purl.org/dc/dcmitype/StillImage"/></cc:Work></rdf:RDF></metadata><defs id="defs6"><clipPath id="clipPath18" clipPathUnits="userSpaceOnUse"><path id="path16" d="M 0,49.828 H 1651.901 V 2568.189 H 0 Z"/></clipPath><clipPath id="clipPath34" clipPathUnits="userSpaceOnUse"><path id="path32" d="M 0,2568.189 H 3276.85 V 0 H 0 Z"/></clipPath><clipPath id="clipPath50" clipPathUnits="userSpaceOnUse"><path id="path48" d="M 0,2568.189 H 3276.85 V 0 H 0 Z"/></clipPath><clipPath id="clipPath348" clipPathUnits="userSpaceOnUse"><path id="path346" d="M 0,2568.189 H 3276.85 V 0 H 0 Z"/></clipPath><clipPath id="clipPath418" clipPathUnits="userSpaceOnUse"><path id="path416" d="M 0,2568.189 H 3276.85 V 0 H 0 Z"/></clipPath></defs><g transform="matrix(1.3333333,0,0,-1.3333333,0,3424.2533)" id="g10">
<g id="g44"><g clip-path="url(#clipPath50)" id="g46"><g transform="translate(1132.5665,180.121)" id="g142"><path id="path144" style="fill:#ffffff;fill-opacity:1;fill-rule:nonzero;stroke:#ffffff;stroke-width:15;stroke-linecap:butt;stroke-linejoin:miter;stroke-miterlimit:10;stroke-dasharray:none;stroke-opacity:1" d="m 0,0 v 147.855 c 0,13.058 -10.586,23.643 -23.644,23.643 h -801.863 c -13.194,0 -23.835,10.799 -23.641,23.992 l 6.468,1615.189 c 0.19,12.914 10.709,23.287 23.625,23.296 l 1066.821,0.075 c 13.382,0.01 24.104,-11.078 23.647,-24.452 L 239.817,885.884 c -0.059,-1.712 -0.303,-3.412 -0.729,-5.07 L 196.287,714.065 c -0.541,-2.108 -0.789,-4.28 -0.736,-6.455 l 3.968,-162.671 c 0.313,-12.83 10.803,-23.068 23.637,-23.068 h 171.913 c 12.833,0 23.323,-10.237 23.636,-23.067 l 7.299,-299.09 c 0.324,-13.28 -10.353,-24.22 -23.637,-24.22 H 228.851 c -13.139,0 -23.758,-10.712 -23.643,-23.851 L 206.536,0"/></g><g transform="translate(1332.6479,690.6376)" id="g146"><path id="path148" style="fill:none;stroke:#263746;stroke-width:7;stroke-linecap:round;stroke-linejoin:miter;stroke-miterlimit:10;stroke-dasharray:none;stroke-opacity:1" d="M 0,0 0.097,-10"/></g><g transform="translate(1332.7643,678.6476)" id="g150"><path id="path152" style="fill:none;stroke:#263746;stroke-width:7;stroke-linecap:round;stroke-linejoin:miter;stroke-miterlimit:10;stroke-dasharray:0.995, 19.905, 1.99, 0.995;stroke-dashoffset:0;stroke-opacity:1" d="M 0,0 0.227,-23.387"/></g><g transform="translate(1332.9961,654.7631)" id="g154"><path id="path156" style="fill:none;stroke:#263746;stroke-width:7;stroke-linecap:round;stroke-linejoin:miter;stroke-miterlimit:10;stroke-dasharray:19.905, 1.99, 0.995, 19.905, 1.99, 0.995;stroke-dashoffset:0;stroke-opacity:1" d="M 0,0 2.661,-274.175"/></g><g transform="translate(1335.6615,380.0902)" id="g158"><path id="path160" style="fill:none;stroke:#263746;stroke-width:7;stroke-linecap:round;stroke-linejoin:miter;stroke-miterlimit:10;stroke-dasharray:none;stroke-opacity:1" d="M 0,0 0.097,-10"/></g><g transform="translate(1281.014,1086.0198)" id="g162"><path id="path164" style="fill:#263746;fill-opacity:1;fill-rule:nonzero;stroke:none" d="M 0,0 -16.597,-52.556 53.939,-76.99 72.38,-23.973 Z"/></g><g transform="translate(1211.2975,346.0872)" id="g166"><path id="path168" style="fill:none;stroke:#263746;stroke-width:8;stroke-linecap:butt;stroke-linejoin:miter;stroke-miterlimit:10;stroke-dasharray:none;stroke-opacity:1" d="M 0,0 3.108,-165.966"/></g><g transform="translate(1263.2616,346.0872)" id="g170"><path id="path172" style="fill:none;stroke:#263746;stroke-width:8;stroke-linecap:butt;stroke-linejoin:miter;stroke-miterlimit:10;stroke-dasharray:none;stroke-opacity:1" d="M 0,0 2.486,-165.966"/></g><path id="path174" style="fill:#263746;fill-opacity:1;fill-rule:nonzero;stroke:none" d="m 1265.954,355.84 h -57.781 v 94.662 h 57.781 z"/><path id="path176" style="fill:#263746;fill-opacity:1;fill-rule:nonzero;stroke:none" d="m 1132.759,366.372 h -126.204 v 51.019 h 126.204 z"/><g transform="translate(1519.0436,687.5595)" id="g178"><path id="path180" style="fill:#709796;fill-opacity:1;fill-rule:nonzero;stroke:none" d="m 0,0 h -168.251 v -308.574 l 172.36,-0.082 c 9.433,-0.005 17.003,7.788 16.725,17.217 L 12.593,-12.227 C 12.392,-5.416 6.813,0 0,0 m -263.584,427.982 103.171,-0.158 25.051,871.015 c 0.283,9.835 -7.613,17.961 -17.452,17.961 H -256.432 Z M -723.469,156.746 -722.24,14.138 h 302.428 v 199.159 h -470.391 c 0,0 -0.462,-54.092 0,-55.937 z m -3.073,-319.946 -307.96,-0.922 0.922,144.759 h -53.478 v -188.095 h 393.709 v 61.777 h -32.271 z m -481.302,-156.439 h 677.388 v 62.698 h -677.388 z m 72.533,781.886 h -59.01 l -13.523,-689.682 56.557,0.832 z m 92.141,45.709 -70.221,-0.222 v 211.453 l 71.521,0.082 z"/></g><g transform="translate(389.7829,816.9394)" id="g182"><path id="path184" style="fill:#367dbf;fill-opacity:1;fill-rule:nonzero;stroke:none" d="M 0,0 H -39.478 C -43.853,0 -47.4,3.547 -47.4,7.922 v 41.322 c 0,4.375 3.547,7.922 7.922,7.922 H 0 c 4.375,0 7.922,-3.547 7.922,-7.922 V 7.922 C 7.922,3.547 4.375,0 0,0"/></g><g transform="translate(389.7829,816.9394)" id="g186"><path id="path188" style="fill:none;stroke:#ffffff;stroke-width:5;stroke-linecap:butt;stroke-linejoin:miter;stroke-miterlimit:10;stroke-dasharray:none;stroke-opacity:1" d="M 0,0 H -39.478 C -43.853,0 -47.4,3.547 -47.4,7.922 v 41.322 c 0,4.375 3.547,7.922 7.922,7.922 H 0 c 4.375,0 7.922,-3.547 7.922,-7.922 V 7.922 C 7.922,3.547 4.375,0 0,0 Z"/></g><g transform="translate(362.2145,846.231)" id="g190"><path id="path192" style="fill:#ffffff;fill-opacity:1;fill-rule:nonzero;stroke:none" d="m 0,0 h 6.426 c 0.947,0 1.86,0.077 2.738,0.231 0.878,0.156 1.651,0.456 2.318,0.904 0.667,0.445 1.203,1.075 1.607,1.89 0.403,0.816 0.605,1.882 0.605,3.201 0,1.319 -0.202,2.386 -0.605,3.201 -0.404,0.814 -0.94,1.444 -1.607,1.892 -0.667,0.446 -1.44,0.746 -2.318,0.902 -0.878,0.154 -1.791,0.233 -2.738,0.233 L 0,12.454 Z M -8.269,19.555 H 8.69 c 2.352,0 4.354,-0.379 6.005,-1.137 1.65,-0.756 2.994,-1.755 4.03,-2.996 1.035,-1.242 1.79,-2.669 2.264,-4.277 C 21.463,9.534 21.7,7.893 21.7,6.226 21.7,4.518 21.463,2.871 20.989,1.28 20.515,-0.312 19.76,-1.728 18.725,-2.968 17.689,-4.212 16.345,-5.209 14.695,-5.966 13.044,-6.722 11.042,-7.101 8.69,-7.101 H 0 V -22 h -8.269 z"/></g><g transform="translate(976.8629,797.2857)" id="g194"><path id="path196" style="fill:#367dbf;fill-opacity:1;fill-rule:nonzero;stroke:none" d="M 0,0 H -39.478 C -43.853,0 -47.4,3.547 -47.4,7.922 v 41.322 c 0,4.375 3.547,7.922 7.922,7.922 H 0 c 4.375,0 7.922,-3.547 7.922,-7.922 V 7.922 C 7.922,3.547 4.375,0 0,0"/></g><g transform="translate(976.8629,797.2857)" id="g198"><path id="path200" style="fill:none;stroke:#ffffff;stroke-width:5;stroke-linecap:butt;stroke-linejoin:miter;stroke-miterlimit:10;stroke-dasharray:none;stroke-opacity:1" d="M 0,0 H -39.478 C -43.853,0 -47.4,3.547 -47.4,7.922 v 41.322 c 0,4.375 3.547,7.922 7.922,7.922 H 0 c 4.375,0 7.922,-3.547 7.922,-7.922 V 7.922 C 7.922,3.547 4.375,0 0,0 Z"/></g><g transform="translate(949.2944,826.5773)" id="g202"><path id="path204" style="fill:#ffffff;fill-opacity:1;fill-rule:nonzero;stroke:none" d="m 0,0 h 6.426 c 0.947,0 1.86,0.077 2.738,0.231 0.878,0.156 1.651,0.456 2.318,0.904 0.667,0.445 1.203,1.075 1.607,1.89 0.403,0.816 0.605,1.882 0.605,3.201 0,1.319 -0.202,2.386 -0.605,3.201 -0.404,0.814 -0.94,1.444 -1.607,1.892 -0.667,0.446 -1.44,0.746 -2.318,0.902 -0.878,0.154 -1.791,0.233 -2.738,0.233 L 0,12.454 Z M -8.269,19.555 H 8.69 c 2.352,0 4.354,-0.379 6.005,-1.137 1.65,-0.756 2.994,-1.755 4.03,-2.996 1.035,-1.242 1.79,-2.669 2.264,-4.277 C 21.463,9.534 21.7,7.893 21.7,6.226 21.7,4.518 21.463,2.871 20.989,1.28 20.515,-0.312 19.76,-1.728 18.725,-2.968 17.689,-4.212 16.345,-5.209 14.695,-5.966 13.044,-6.722 11.042,-7.101 8.69,-7.101 H 0 V -22 h -8.269 z"/></g><g transform="translate(1342.1625,1562.1616)" id="g206"><path id="path208" style="fill:#367dbf;fill-opacity:1;fill-rule:nonzero;stroke:none" d="M 0,0 H -39.478 C -43.853,0 -47.4,3.547 -47.4,7.922 v 41.322 c 0,4.375 3.547,7.922 7.922,7.922 H 0 c 4.375,0 7.922,-3.547 7.922,-7.922 V 7.922 C 7.922,3.547 4.375,0 0,0"/></g><g transform="translate(1342.1625,1562.1616)" id="g210"><path id="path212" style="fill:none;stroke:#ffffff;stroke-width:5;stroke-linecap:butt;stroke-linejoin:miter;stroke-miterlimit:10;stroke-dasharray:none;stroke-opacity:1" d="M 0,0 H -39.478 C -43.853,0 -47.4,3.547 -47.4,7.922 v 41.322 c 0,4.375 3.547,7.922 7.922,7.922 H 0 c 4.375,0 7.922,-3.547 7.922,-7.922 V 7.922 C 7.922,3.547 4.375,0 0,0 Z"/></g><g transform="translate(1314.594,1591.4531)" id="g214"><path id="path216" style="fill:#ffffff;fill-opacity:1;fill-rule:nonzero;stroke:none" d="m 0,0 h 6.426 c 0.948,0 1.86,0.077 2.738,0.231 0.878,0.156 1.651,0.456 2.318,0.904 0.667,0.445 1.203,1.075 1.607,1.89 0.403,0.816 0.605,1.882 0.605,3.201 0,1.319 -0.202,2.386 -0.605,3.201 -0.404,0.814 -0.94,1.444 -1.607,1.892 -0.667,0.446 -1.44,0.746 -2.318,0.902 -0.878,0.154 -1.79,0.232 -2.738,0.232 L 0,12.453 Z M -8.269,19.555 H 8.69 c 2.352,0 4.354,-0.379 6.005,-1.137 1.65,-0.756 2.994,-1.755 4.03,-2.996 1.035,-1.242 1.79,-2.669 2.264,-4.277 C 21.463,9.534 21.7,7.893 21.7,6.226 21.7,4.518 21.463,2.871 20.989,1.28 20.515,-0.312 19.76,-1.728 18.725,-2.968 17.689,-4.212 16.345,-5.209 14.695,-5.966 13.044,-6.722 11.042,-7.101 8.69,-7.101 H 0 V -22 h -8.269 z"/></g><g transform="translate(678.8623,452.7141)" id="g218"><path id="path220" style="fill:#367dbf;fill-opacity:1;fill-rule:nonzero;stroke:none" d="M 0,0 H -39.478 C -43.853,0 -47.4,3.547 -47.4,7.922 v 41.322 c 0,4.375 3.547,7.922 7.922,7.922 H 0 c 4.375,0 7.922,-3.547 7.922,-7.922 V 7.922 C 7.922,3.547 4.375,0 0,0"/></g><g transform="translate(678.8623,452.7141)" id="g222"><path id="path224" style="fill:none;stroke:#ffffff;stroke-width:5;stroke-linecap:butt;stroke-linejoin:miter;stroke-miterlimit:10;stroke-dasharray:none;stroke-opacity:1" d="M 0,0 H -39.478 C -43.853,0 -47.4,3.547 -47.4,7.922 v 41.322 c 0,4.375 3.547,7.922 7.922,7.922 H 0 c 4.375,0 7.922,-3.547 7.922,-7.922 V 7.922 C 7.922,3.547 4.375,0 0,0 Z"/></g><g transform="translate(651.2939,482.0056)" id="g226"><path id="path228" style="fill:#ffffff;fill-opacity:1;fill-rule:nonzero;stroke:none" d="m 0,0 h 6.426 c 0.947,0 1.86,0.077 2.738,0.231 0.878,0.156 1.651,0.456 2.318,0.904 0.667,0.445 1.202,1.075 1.607,1.89 0.403,0.816 0.605,1.882 0.605,3.201 0,1.319 -0.202,2.386 -0.605,3.201 -0.405,0.814 -0.94,1.444 -1.607,1.892 -0.667,0.446 -1.44,0.746 -2.318,0.902 -0.878,0.154 -1.791,0.233 -2.738,0.233 L 0,12.454 Z M -8.269,19.555 H 8.69 c 2.352,0 4.354,-0.379 6.005,-1.137 1.65,-0.756 2.994,-1.755 4.03,-2.996 1.035,-1.242 1.79,-2.669 2.264,-4.277 C 21.463,9.534 21.7,7.893 21.7,6.226 21.7,4.518 21.463,2.871 20.989,1.28 20.515,-0.312 19.76,-1.728 18.725,-2.968 17.689,-4.212 16.345,-5.209 14.695,-5.966 13.044,-6.722 11.042,-7.101 8.69,-7.101 H 0 V -22 h -8.269 z"/></g><g transform="translate(678.8623,375.7242)" id="g230"><path id="path232" style="fill:#367dbf;fill-opacity:1;fill-rule:nonzero;stroke:none" d="M 0,0 H -39.478 C -43.853,0 -47.4,3.547 -47.4,7.922 v 41.322 c 0,4.375 3.547,7.922 7.922,7.922 H 0 c 4.375,0 7.922,-3.547 7.922,-7.922 V 7.922 C 7.922,3.547 4.375,0 0,0"/></g><g transform="translate(678.8623,375.7242)" id="g234"><path id="path236" style="fill:none;stroke:#ffffff;stroke-width:5;stroke-linecap:butt;stroke-linejoin:miter;stroke-miterlimit:10;stroke-dasharray:none;stroke-opacity:1" d="M 0,0 H -39.478 C -43.853,0 -47.4,3.547 -47.4,7.922 v 41.322 c 0,4.375 3.547,7.922 7.922,7.922 H 0 c 4.375,0 7.922,-3.547 7.922,-7.922 V 7.922 C 7.922,3.547 4.375,0 0,0 Z"/></g><g transform="translate(651.2939,405.0158)" id="g238"><path id="path240" style="fill:#ffffff;fill-opacity:1;fill-rule:nonzero;stroke:none" d="m 0,0 h 6.426 c 0.947,0 1.86,0.077 2.738,0.231 0.878,0.156 1.651,0.456 2.318,0.904 0.667,0.445 1.202,1.075 1.607,1.89 0.403,0.816 0.605,1.882 0.605,3.201 0,1.319 -0.202,2.386 -0.605,3.201 -0.405,0.814 -0.94,1.444 -1.607,1.892 -0.667,0.446 -1.44,0.746 -2.318,0.902 -0.878,0.154 -1.791,0.233 -2.738,0.233 L 0,12.454 Z M -8.269,19.555 H 8.69 c 2.352,0 4.354,-0.379 6.005,-1.137 1.65,-0.756 2.994,-1.755 4.03,-2.996 1.035,-1.242 1.79,-2.669 2.264,-4.277 C 21.463,9.534 21.7,7.893 21.7,6.226 21.7,4.518 21.463,2.871 20.989,1.28 20.515,-0.312 19.76,-1.728 18.725,-2.968 17.689,-4.212 16.345,-5.209 14.695,-5.966 13.044,-6.722 11.042,-7.101 8.69,-7.101 H 0 V -22 h -8.269 z"/></g><g transform="translate(1244.4438,846.4521)" id="g242"><path id="path244" style="fill:#ed7039;fill-opacity:1;fill-rule:nonzero;stroke:none" d="m 0,0 v -327.015 h -129.08 v 29.5 h -331.941 v 132.773 h 331.941 l 0,164.742 z"/></g><g transform="translate(1244.4438,846.4521)" id="g246"><path id="path248" style="fill:none;stroke:#ffffff;stroke-width:6;stroke-linecap:butt;stroke-linejoin:miter;stroke-miterlimit:10;stroke-dasharray:none;stroke-opacity:1" d="m 0,0 v -327.015 h -129.08 v 29.5 h -331.941 v 132.773 h 331.941 l 0,164.742 z"/></g><path id="path250" style="fill:#ed7039;fill-opacity:1;fill-rule:nonzero;stroke:#ffffff;stroke-width:6;stroke-linecap:butt;stroke-linejoin:miter;stroke-miterlimit:10;stroke-dasharray:none;stroke-opacity:1" d="M 616.227,747.172 H 500.973 v 78.373 h 115.254 z"/><path id="path252" style="fill:#ed7039;fill-opacity:1;fill-rule:nonzero;stroke:#ffffff;stroke-width:6;stroke-linecap:butt;stroke-linejoin:miter;stroke-miterlimit:10;stroke-dasharray:none;stroke-opacity:1" d="m 616.227,747.172 h 167.196 v 78.373 H 616.227 Z"/><path id="path254" style="fill:#ed7039;fill-opacity:1;fill-rule:nonzero;stroke:#ffffff;stroke-width:6;stroke-linecap:butt;stroke-linejoin:miter;stroke-miterlimit:10;stroke-dasharray:none;stroke-opacity:1" d="M 616.227,747.172 H 783.423 V 531.416 H 616.227 Z"/><path id="path256" style="fill:#ed7039;fill-opacity:1;fill-rule:nonzero;stroke:#ffffff;stroke-width:6;stroke-linecap:butt;stroke-linejoin:miter;stroke-miterlimit:10;stroke-dasharray:none;stroke-opacity:1" d="M 616.227,644.826 H 500.973 v 102.346 h 115.254 z"/><path id="path258" style="fill:#ed7039;fill-opacity:1;fill-rule:nonzero;stroke:#ffffff;stroke-width:6;stroke-linecap:butt;stroke-linejoin:miter;stroke-miterlimit:10;stroke-dasharray:none;stroke-opacity:1" d="M 616.227,644.826 H 500.973 V 587.66 h 115.254 z"/><path id="path260" style="fill:#ed7039;fill-opacity:1;fill-rule:nonzero;stroke:#ffffff;stroke-width:6;stroke-linecap:butt;stroke-linejoin:miter;stroke-miterlimit:10;stroke-dasharray:none;stroke-opacity:1" d="M 616.227,587.66 H 500.973 v -56.244 h 115.254 z"/><g transform="translate(481.6011,1780.8003)" id="g262"><path id="path264" style="fill:#263746;fill-opacity:1;fill-rule:nonzero;stroke:none" d="M 0,0 V -369.773 H -82.05 V -588.288 H -186.177 L -177.603,0 Z"/></g><g transform="translate(481.6011,1780.8003)" id="g266"><path id="path268" style="fill:none;stroke:#ffffff;stroke-width:10;stroke-linecap:butt;stroke-linejoin:miter;stroke-miterlimit:10;stroke-dasharray:none;stroke-opacity:1" d="M 0,0 V -369.773 H -82.05 V -588.288 H -186.177 L -177.603,0 Z"/></g><path id="path270" style="fill:#263746;fill-opacity:1;fill-rule:nonzero;stroke:#ffffff;stroke-width:6;stroke-linecap:butt;stroke-linejoin:miter;stroke-miterlimit:10;stroke-dasharray:none;stroke-opacity:1" d="m 1138.723,1762.337 h -366.37 v 213.91 h 366.37 z"/><g transform="translate(1138.7234,1762.3365)" id="g272"><path id="path274" style="fill:#263746;fill-opacity:1;fill-rule:nonzero;stroke:none" d="m 0,0 v -237.933 h -184.409 v 37.55 H -366.37 V 0 Z"/></g><g transform="translate(1138.7234,1762.3365)" id="g276"><path id="path278" style="fill:none;stroke:#ffffff;stroke-width:6;stroke-linecap:butt;stroke-linejoin:miter;stroke-miterlimit:10;stroke-dasharray:none;stroke-opacity:1" d="m 0,0 v -237.933 h -184.409 v 37.55 H -366.37 V 0 Z"/></g><g transform="translate(1138.7234,1524.4033)" id="g280"><path id="path282" style="fill:#263746;fill-opacity:1;fill-rule:nonzero;stroke:none" d="m 0,0 v -100.244 h -184.409 v -74.892 H -366.37 V 37.55 h 181.961 V 0 Z"/></g><g transform="translate(1138.7234,1524.4033)" id="g284"><path id="path286" style="fill:none;stroke:#ffffff;stroke-width:6;stroke-linecap:butt;stroke-linejoin:miter;stroke-miterlimit:10;stroke-dasharray:none;stroke-opacity:1" d="m 0,0 v -100.244 h -184.409 v -74.892 H -366.37 V 37.55 h 181.961 V 0 Z"/></g><path id="path288" style="fill:#263746;fill-opacity:1;fill-rule:nonzero;stroke:#ffffff;stroke-width:6;stroke-linecap:butt;stroke-linejoin:miter;stroke-miterlimit:10;stroke-dasharray:none;stroke-opacity:1" d="M 1138.723,1262.82 H 954.314 v 161.34 h 184.409 z"/><path id="path290" style="fill:#263746;fill-opacity:1;fill-rule:nonzero;stroke:#ffffff;stroke-width:6;stroke-linecap:butt;stroke-linejoin:miter;stroke-miterlimit:10;stroke-dasharray:none;stroke-opacity:1" d="M 1138.723,1078.411 H 954.314 v 184.409 h 184.409 z"/><path id="path292" style="fill:#263746;fill-opacity:1;fill-rule:nonzero;stroke:#ffffff;stroke-width:6;stroke-linecap:butt;stroke-linejoin:miter;stroke-miterlimit:10;stroke-dasharray:none;stroke-opacity:1" d="M 1138.723,953.397 H 954.314 v 125.014 h 184.409 z"/><g transform="translate(954.3142,1349.2676)" id="g294"><path id="path296" style="fill:#263746;fill-opacity:1;fill-rule:nonzero;stroke:none" d="M 0,0 V -395.871 H -181.961 V -40.579 H -346.994 V 0 Z"/></g><g transform="translate(954.3142,1349.2676)" id="g298"><path id="path300" style="fill:none;stroke:#ffffff;stroke-width:6;stroke-linecap:butt;stroke-linejoin:miter;stroke-miterlimit:10;stroke-dasharray:none;stroke-opacity:1" d="M 0,0 V -395.871 H -181.961 V -40.579 H -346.994 V 0 Z"/></g><path id="path302" style="fill:#263746;fill-opacity:1;fill-rule:nonzero;stroke:#ffffff;stroke-width:6;stroke-linecap:butt;stroke-linejoin:miter;stroke-miterlimit:10;stroke-dasharray:none;stroke-opacity:1" d="M 772.353,953.397 H 607.32 v 355.292 h 165.033 z"/><path id="path304" style="fill:#263746;fill-opacity:1;fill-rule:nonzero;stroke:#ffffff;stroke-width:6;stroke-linecap:butt;stroke-linejoin:miter;stroke-miterlimit:10;stroke-dasharray:none;stroke-opacity:1" d="M 772.353,1349.268 H 607.32 v 413.069 h 165.033 z"/></g></g><text id="text324" style="font-variant:normal;font-weight:900;font-stretch:normal;font-size:78.69719696px;font-family:'HelveticaNeueLT Std Blk';-inkscape-font-specification:HelveticaNeueLTStd-Blk;writing-mode:lr-tb;fill:#ffffff;fill-opacity:1;fill-rule:nonzero;stroke:none" transform="matrix(1,0,0,-1,339.7041,1547.418)"><tspan id="tspan306" y="0" x="0 54.537159">10</tspan><tspan id="tspan308" y="557.64838" x="680.57336">1</tspan><tspan id="tspan310" y="415.12772" x="680.57336">2</tspan><tspan id="tspan312" y="229.87453" x="680.57336">3</tspan><tspan id="tspan314" y="109.86129" x="499.41245">4</tspan><tspan id="tspan316" y="437.79251" x="499.41245 326.82947">56</tspan><tspan id="tspan318" y="0" x="326.82947">7</tspan><tspan id="tspan320" y="-298.65588" x="588.73376">8</tspan><tspan id="tspan322" y="-87.511284" x="588.73376">9</tspan></text>
<text id="text334" style="font-variant:normal;font-weight:900;font-stretch:normal;font-size:32.15370178px;font-family:'HelveticaNeueLT Std Blk';-inkscape-font-specification:HelveticaNeueLTStd-Blk;writing-mode:lr-tb;fill:#ffffff;fill-opacity:1;fill-rule:nonzero;stroke:none" transform="matrix(1,0,0,-1,547.5518,547.499)"><tspan id="tspan326" y="0" x="0">A</tspan><tspan id="tspan328" y="-56.879894" x="-0.83599621">B</tspan><tspan id="tspan330" y="-134.11308" x="-1.1253794">C</tspan><tspan id="tspan332" y="-228.00189" x="139.61137">D</tspan></text>
<text id="text340" style="font-variant:normal;font-weight:900;font-stretch:normal;font-size:38.04850006px;font-family:'HelveticaNeueLT Std Blk';-inkscape-font-specification:HelveticaNeueLTStd-Blk;writing-mode:lr-tb;fill:#ffffff;fill-opacity:1;fill-rule:nonzero;stroke:none" transform="matrix(1,0,0,-1,991.3184,602.6318)"><tspan id="tspan336" y="0" x="0">E</tspan><tspan id="tspan338" y="-9.3979797" x="-303.62704">F</tspan></text>
<g id="g342"><g clip-path="url(#clipPath348)" id="g344"><g transform="translate(1208.6967,346.0872)" id="g350"><path id="path352" style="fill:#273746;fill-opacity:1;fill-rule:nonzero;stroke:none" d="m 0,0 57.166,0.271 v -195.059 l -60.469,1.951 z"/></g><g transform="translate(487.5933,1266.4121)" id="g354"><path id="path356" style="fill:#367dbf;fill-opacity:1;fill-rule:nonzero;stroke:none" d="M 0,0 H -39.478 C -43.853,0 -47.4,3.547 -47.4,7.922 v 41.322 c 0,4.375 3.547,7.922 7.922,7.922 H 0 c 4.375,0 7.922,-3.547 7.922,-7.922 V 7.922 C 7.922,3.547 4.375,0 0,0"/></g><g transform="translate(487.5933,1266.4121)" id="g358"><path id="path360" style="fill:none;stroke:#ffffff;stroke-width:5;stroke-linecap:butt;stroke-linejoin:miter;stroke-miterlimit:10;stroke-dasharray:none;stroke-opacity:1" d="M 0,0 H -39.478 C -43.853,0 -47.4,3.547 -47.4,7.922 v 41.322 c 0,4.375 3.547,7.922 7.922,7.922 H 0 c 4.375,0 7.922,-3.547 7.922,-7.922 V 7.922 C 7.922,3.547 4.375,0 0,0 Z"/></g><g transform="translate(460.0249,1295.7037)" id="g362"><path id="path364" style="fill:#ffffff;fill-opacity:1;fill-rule:nonzero;stroke:none" d="m 0,0 h 6.426 c 0.947,0 1.86,0.077 2.738,0.231 0.878,0.156 1.651,0.456 2.318,0.904 0.667,0.445 1.203,1.075 1.607,1.89 0.403,0.816 0.605,1.882 0.605,3.201 0,1.319 -0.202,2.386 -0.605,3.201 -0.404,0.814 -0.94,1.444 -1.607,1.892 -0.667,0.446 -1.44,0.745 -2.318,0.901 -0.878,0.155 -1.791,0.233 -2.738,0.233 H 0 Z M -8.269,19.554 H 8.69 c 2.352,0 4.354,-0.378 6.005,-1.136 1.65,-0.756 2.994,-1.755 4.03,-2.996 1.035,-1.242 1.79,-2.669 2.264,-4.277 C 21.463,9.534 21.7,7.893 21.7,6.226 21.7,4.518 21.463,2.871 20.989,1.28 20.515,-0.312 19.76,-1.728 18.725,-2.968 17.689,-4.212 16.345,-5.209 14.695,-5.966 13.044,-6.722 11.042,-7.101 8.69,-7.101 H 0 V -22 h -8.269 z"/></g><g transform="translate(1467.8729,502.648)" id="g366"><path id="path368" style="fill:#367dbf;fill-opacity:1;fill-rule:nonzero;stroke:none" d="M 0,0 H -39.478 C -43.853,0 -47.4,3.547 -47.4,7.922 v 41.322 c 0,4.375 3.547,7.922 7.922,7.922 H 0 c 4.375,0 7.922,-3.547 7.922,-7.922 V 7.922 C 7.922,3.547 4.375,0 0,0"/></g><g transform="translate(1467.8729,502.648)" id="g370"><path id="path372" style="fill:none;stroke:#ffffff;stroke-width:5;stroke-linecap:butt;stroke-linejoin:miter;stroke-miterlimit:10;stroke-dasharray:none;stroke-opacity:1" d="M 0,0 H -39.478 C -43.853,0 -47.4,3.547 -47.4,7.922 v 41.322 c 0,4.375 3.547,7.922 7.922,7.922 H 0 c 4.375,0 7.922,-3.547 7.922,-7.922 V 7.922 C 7.922,3.547 4.375,0 0,0 Z"/></g><g transform="translate(1440.3044,531.9395)" id="g374"><path id="path376" style="fill:#ffffff;fill-opacity:1;fill-rule:nonzero;stroke:none" d="m 0,0 h 6.426 c 0.948,0 1.86,0.077 2.738,0.231 0.878,0.156 1.651,0.456 2.318,0.904 0.667,0.445 1.203,1.075 1.607,1.89 0.403,0.816 0.605,1.882 0.605,3.201 0,1.319 -0.202,2.386 -0.605,3.201 -0.404,0.814 -0.94,1.444 -1.607,1.892 -0.667,0.446 -1.44,0.746 -2.318,0.902 -0.878,0.154 -1.79,0.233 -2.738,0.233 L 0,12.454 Z M -8.269,19.555 H 8.69 c 2.352,0 4.354,-0.379 6.005,-1.137 1.65,-0.756 2.994,-1.755 4.03,-2.996 1.035,-1.242 1.79,-2.669 2.264,-4.277 C 21.463,9.534 21.7,7.893 21.7,6.226 21.7,4.518 21.463,2.871 20.989,1.28 20.515,-0.312 19.76,-1.728 18.725,-2.968 17.689,-4.212 16.345,-5.209 14.695,-5.966 13.044,-6.722 11.042,-7.101 8.69,-7.101 H 0 V -22 h -8.269 z"/></g></g></g>
</g></svg>