<svg version="1.2" baseProfile="tiny" id="Layer_1" xmlns="http://www.w3.org/2000/svg" xmlns:xlink="http://www.w3.org/1999/xlink"
	 x="0px" y="0px" viewBox="0 0 194 112" overflow="visible" xml:space="preserve" width="100%">
<g>
	<g>
		<path fill="#FFFFFF" d="M24.33,12.24L78.54,2.18l31.23,16.87c0.08,0.04,0.03,0.15-0.06,0.13l-31.76-9.14
			c-0.14-0.04-0.27,0.05-0.28,0.19l-0.39,49.66l-7.68,1.07v-5.03L44.48,39.69l-20.35,4.29L24.33,12.24z"/>
		<path fill="#FFFFFF" d="M51.09,64.19l-0.27,35.07l35.96-8.32l-0.08-28.32c0-0.11,0.12-0.19,0.23-0.16l19.67,5.04l-19.71-9.48
			L51.09,64.19z"/>
		<path fill="#FFFFFF" d="M4.43,47.55l40.04-7.87l25.14,16.24L44.2,47.55c-0.12-0.04-0.25,0.04-0.26,0.17l-0.42,53.34l-39.8,8.77
			L4.43,47.55z"/>
	</g>
	<g>
		<path fill="#FFFFFF" d="M103.65,26.17h7.66l9.26,26.54h-8.12l-1.07-3.79h-8.09l-1.14,3.79h-7.87L103.65,26.17z M109.81,43.24
			l-2.28-8.18h-0.07L105,43.24H109.81z"/>
		<path fill="#FFFFFF" d="M132.5,39.04c-0.04-0.63-0.36-1.12-0.82-1.45c-0.43-0.37-1-0.56-1.57-0.56c-1,0-2.14,0.22-2.14,1.49
			c0,0.56,0.43,0.82,0.82,1c1.18,0.52,3.85,0.67,6.2,1.49c2.35,0.78,4.42,2.23,4.42,5.39c0,5.35-4.92,6.8-9.4,6.8
			c-4.35,0-9.12-1.82-9.23-6.8h6.73c0.04,0.67,0.32,1.23,0.86,1.71c0.36,0.33,1.03,0.56,1.89,0.56c0.93,0,2.39-0.37,2.39-1.49
			c0-1.12-0.61-1.45-3.88-2.04c-5.38-0.97-7.55-2.75-7.55-6.06c0-4.87,5.02-6.13,8.73-6.13c3.99,0,8.8,1.15,8.98,6.1H132.5z"/>
		<path fill="#FFFFFF" d="M150.35,33.42h3.78v4.54h-3.78v6.73c0,1.78,0.39,2.57,2.17,2.57c0.53,0,1.07-0.04,1.6-0.11v5.58
			c-1.42,0-3.03,0.22-4.52,0.22c-2.99,0-6.31-0.48-6.31-5.76v-9.22h-3.13v-4.54h3.13v-5.87h7.05V33.42z"/>
		<path fill="#FFFFFF" d="M155.98,33.42h6.77v3.09h0.07c1.14-2.3,2.64-3.57,5.2-3.57c0.71,0,1.39,0.11,2.07,0.3l-0.36,6.17
			c-0.71-0.26-1-0.15-2.42-0.15c-2.78,0-4.27,1.71-4.27,5.84v7.62h-7.05V33.42z"/>
		<path fill="#FFFFFF" d="M189.43,48.4c0,1.45,0.07,3.09,0.86,4.31h-7.2c-0.18-0.52-0.28-1.3-0.25-1.82h-0.07
			c-1.5,1.78-3.67,2.3-5.95,2.3c-3.56,0-6.52-1.78-6.52-5.84c0-6.1,6.84-5.87,10.44-6.58c0.96-0.19,1.92-0.48,1.92-1.71
			c0-1.3-1.18-1.78-2.32-1.78c-2.17,0-2.6,1.15-2.64,1.97h-6.55c0.11-2.71,1.39-4.31,3.21-5.2c1.78-0.89,4.13-1.12,6.31-1.12
			c8.83,0,8.76,3.83,8.76,7.55V48.4z M182.66,44.8c-1.19,0-1.82-0.04-2.78,0.18c-1.57,0.37-2.39,0.78-2.39,2.08
			c0,0.89,0.93,1.78,2.21,1.78c1.6,0,2.85-1,2.96-3.01V44.8z"/>
	</g>
	<ellipse fill="#FFFFFF" cx="149.71" cy="60.33" rx="0.37" ry="0.35"/>
	<path fill="#FFFFFF" d="M117.06,58.97h5.52c1.04,0,1.9,0.44,2.57,0.96c0.68,0.55,1.03,1.37,1.04,2.47
		c-0.01,0.81-0.26,1.49-0.75,2.04c-0.5,0.55-1.16,0.86-1.97,0.95v0.04c0.87,0.02,1.6,0.32,2.2,0.89c0.6,0.56,0.91,1.35,0.93,2.36
		c-0.01,1.17-0.4,2.05-1.17,2.64c-0.78,0.61-1.81,0.91-3.06,0.91h-5.3V58.97z M117.42,65.22h5.15c0.88,0,1.64-0.24,2.28-0.72
		c0.64-0.48,0.96-1.18,0.97-2.11c-0.01-0.99-0.32-1.72-0.92-2.2c-0.61-0.47-1.38-0.7-2.33-0.7h-5.15V65.22z M117.42,71.86h5.11
		c1.07,0,1.95-0.26,2.64-0.79c0.7-0.53,1.05-1.32,1.06-2.39c-0.02-1.14-0.4-1.95-1.13-2.43c-0.72-0.45-1.56-0.67-2.52-0.67h-5.16
		V71.86z"/>
	<path fill="#FFFFFF" d="M136.62,72.22h-0.36v-2.32l-0.04-0.01c-0.16,0.74-0.53,1.34-1.1,1.82c-0.56,0.48-1.31,0.72-2.23,0.74
		c-0.97-0.01-1.75-0.31-2.36-0.91c-0.62-0.57-0.93-1.4-0.93-2.49V62.8h0.36v6.21c0.01,1.07,0.3,1.86,0.88,2.35
		c0.56,0.49,1.25,0.73,2.05,0.73c1.12-0.01,1.96-0.42,2.52-1.22c0.56-0.74,0.84-1.66,0.84-2.74V62.8h0.36V72.22z"/>
	<path fill="#FFFFFF" d="M145.97,65.58c-0.01-0.94-0.29-1.62-0.83-2.04c-0.54-0.4-1.25-0.6-2.15-0.6c-0.64,0-1.14,0.08-1.51,0.23
		c-0.37,0.17-0.65,0.38-0.83,0.63c-0.18,0.23-0.29,0.45-0.33,0.66c-0.06,0.22-0.1,0.38-0.1,0.47c0,0.45,0.1,0.81,0.29,1.07
		c0.18,0.27,0.43,0.46,0.74,0.58c0.63,0.22,1.42,0.45,2.37,0.7c0.37,0.08,0.73,0.18,1.08,0.3c0.35,0.1,0.67,0.24,0.96,0.42
		c0.29,0.17,0.52,0.41,0.68,0.7c0.16,0.29,0.25,0.67,0.25,1.12c-0.02,0.93-0.38,1.6-1.06,2.01c-0.67,0.41-1.43,0.61-2.28,0.61
		c-2.48,0.01-3.73-1.13-3.74-3.43h0.36c0.02,2.06,1.15,3.09,3.38,3.08c0.71,0,1.38-0.17,2-0.52c0.63-0.34,0.96-0.91,0.98-1.7
		c0-0.42-0.08-0.76-0.25-1.03c-0.18-0.26-0.43-0.46-0.74-0.62c-0.29-0.16-0.62-0.3-1.01-0.41c-0.18-0.06-0.37-0.11-0.58-0.16
		c-0.2-0.04-0.4-0.07-0.61-0.11c-0.87-0.21-1.56-0.42-2.07-0.64c-0.74-0.3-1.12-0.95-1.12-1.94c-0.01-0.56,0.23-1.09,0.72-1.58
		c0.25-0.24,0.58-0.44,0.97-0.59c0.39-0.13,0.87-0.2,1.44-0.2c2.18-0.02,3.29,0.97,3.34,3H145.97z"/>
	<path fill="#FFFFFF" d="M149.89,72.22h-0.36V62.8h0.36V72.22z"/>
	<path fill="#FFFFFF" d="M153.07,62.8h0.36v2.34h0.04c0.18-0.74,0.55-1.35,1.13-1.83c0.56-0.47,1.3-0.71,2.2-0.72
		c1,0,1.79,0.29,2.37,0.86c0.6,0.58,0.9,1.43,0.91,2.53v6.24h-0.36v-6.2c-0.01-1.09-0.3-1.87-0.86-2.36
		c-0.56-0.48-1.25-0.72-2.07-0.72c-1.11,0.02-1.94,0.41-2.51,1.17c-0.57,0.77-0.86,1.69-0.86,2.77v5.34h-0.36V62.8z"/>
	<path fill="#FFFFFF" d="M163.23,67.58c0.01,1.3,0.3,2.36,0.86,3.19c0.57,0.86,1.5,1.3,2.79,1.31c2-0.01,3.2-1.06,3.61-3.13h0.36
		c-0.14,1.09-0.56,1.94-1.26,2.55c-0.71,0.61-1.6,0.93-2.68,0.94c-1.42-0.01-2.44-0.48-3.07-1.41c-0.66-0.92-0.99-2.09-0.97-3.52
		c0.02-1.59,0.44-2.81,1.26-3.65c0.78-0.85,1.71-1.28,2.78-1.28c1.44,0.02,2.49,0.53,3.14,1.52c0.66,0.98,0.96,2.14,0.9,3.48H163.23
		z M170.61,67.23c0.01-1.2-0.29-2.22-0.9-3.04c-0.62-0.82-1.54-1.24-2.75-1.25c-1.01,0.01-1.86,0.39-2.55,1.14
		c-0.68,0.75-1.07,1.8-1.17,3.15H170.61z"/>
	<path fill="#FFFFFF" d="M179.78,65.58c-0.01-0.94-0.29-1.62-0.83-2.04c-0.54-0.4-1.25-0.6-2.15-0.6c-0.64,0-1.14,0.08-1.51,0.23
		c-0.37,0.17-0.65,0.38-0.83,0.63c-0.18,0.23-0.29,0.45-0.33,0.66c-0.06,0.22-0.1,0.38-0.1,0.47c0,0.45,0.1,0.81,0.29,1.07
		c0.18,0.27,0.43,0.46,0.74,0.58c0.63,0.22,1.42,0.45,2.37,0.7c0.37,0.08,0.73,0.18,1.08,0.3c0.35,0.1,0.67,0.24,0.96,0.42
		c0.29,0.17,0.52,0.41,0.68,0.7c0.16,0.29,0.25,0.67,0.25,1.12c-0.02,0.93-0.38,1.6-1.06,2.01c-0.67,0.41-1.43,0.61-2.28,0.61
		c-2.48,0.01-3.73-1.13-3.74-3.43h0.36c0.02,2.06,1.15,3.09,3.38,3.08c0.71,0,1.38-0.17,2-0.52c0.63-0.34,0.96-0.91,0.98-1.7
		c0-0.42-0.08-0.76-0.25-1.03c-0.18-0.26-0.43-0.46-0.74-0.62c-0.29-0.16-0.62-0.3-1.01-0.41c-0.18-0.06-0.37-0.11-0.58-0.16
		c-0.2-0.04-0.4-0.07-0.61-0.11c-0.87-0.21-1.56-0.42-2.07-0.64c-0.74-0.3-1.12-0.95-1.12-1.94c-0.01-0.56,0.23-1.09,0.72-1.58
		c0.25-0.24,0.58-0.44,0.97-0.59c0.39-0.13,0.87-0.2,1.44-0.2c2.18-0.02,3.29,0.97,3.34,3H179.78z"/>
	<path fill="#FFFFFF" d="M189.43,65.58c-0.01-0.94-0.29-1.62-0.83-2.04c-0.54-0.4-1.25-0.6-2.15-0.6c-0.64,0-1.14,0.08-1.51,0.23
		c-0.37,0.17-0.65,0.38-0.83,0.63c-0.18,0.23-0.29,0.45-0.33,0.66c-0.06,0.22-0.1,0.38-0.1,0.47c0,0.45,0.1,0.81,0.29,1.07
		c0.18,0.27,0.43,0.46,0.74,0.58c0.63,0.22,1.42,0.45,2.37,0.7c0.37,0.08,0.73,0.18,1.08,0.3c0.35,0.1,0.67,0.24,0.96,0.42
		c0.29,0.17,0.52,0.41,0.68,0.7c0.16,0.29,0.25,0.67,0.25,1.12c-0.02,0.93-0.38,1.6-1.06,2.01c-0.67,0.41-1.43,0.61-2.28,0.61
		c-2.48,0.01-3.73-1.13-3.74-3.43h0.36c0.02,2.06,1.15,3.09,3.38,3.08c0.71,0,1.38-0.17,2-0.52c0.63-0.34,0.96-0.91,0.98-1.7
		c0-0.42-0.08-0.76-0.25-1.03c-0.18-0.26-0.43-0.46-0.74-0.62c-0.29-0.16-0.62-0.3-1.01-0.41c-0.18-0.06-0.37-0.11-0.58-0.16
		c-0.2-0.04-0.4-0.07-0.61-0.11c-0.87-0.21-1.56-0.42-2.07-0.64c-0.74-0.3-1.12-0.95-1.12-1.94c-0.01-0.56,0.23-1.09,0.72-1.58
		c0.25-0.24,0.58-0.44,0.97-0.59c0.39-0.13,0.87-0.2,1.44-0.2c2.18-0.02,3.29,0.97,3.34,3H189.43z"/>
	<path fill="#FFFFFF" d="M147.78,84.92c-0.22,1.62-0.81,2.92-1.77,3.9c-0.96,1.01-2.26,1.53-3.88,1.54
		c-1.73-0.02-3.12-0.66-4.17-1.91c-1.08-1.23-1.63-2.85-1.64-4.84c-0.01-1.68,0.46-3.24,1.41-4.69c0.94-1.47,2.48-2.22,4.64-2.27
		c1.72,0.04,2.99,0.54,3.83,1.5c0.86,0.94,1.29,1.85,1.3,2.73h-0.36c-0.08-1-0.54-1.89-1.39-2.66c-0.84-0.78-1.96-1.19-3.38-1.21
		c-1.04,0.01-1.92,0.23-2.64,0.65c-0.73,0.41-1.32,0.96-1.76,1.63c-0.87,1.42-1.29,2.86-1.28,4.33c0,1.73,0.48,3.21,1.44,4.44
		c0.94,1.27,2.28,1.92,4.02,1.94c1.55-0.01,2.77-0.5,3.66-1.47c0.89-0.93,1.43-2.14,1.63-3.61H147.78z"/>
	<path fill="#FFFFFF" d="M150.45,85.41c0.01,1.3,0.3,2.36,0.86,3.19c0.57,0.86,1.5,1.3,2.79,1.31c2-0.01,3.2-1.06,3.61-3.13h0.36
		c-0.14,1.09-0.56,1.94-1.26,2.55c-0.71,0.61-1.6,0.93-2.68,0.94c-1.42-0.01-2.44-0.48-3.07-1.41c-0.66-0.92-0.99-2.09-0.97-3.52
		c0.02-1.59,0.44-2.81,1.26-3.65c0.78-0.85,1.71-1.28,2.78-1.28c1.44,0.02,2.49,0.53,3.14,1.52c0.66,0.98,0.96,2.14,0.9,3.48H150.45
		z M157.83,85.05c0.01-1.2-0.29-2.22-0.9-3.04c-0.62-0.82-1.54-1.24-2.75-1.25c-1.01,0.01-1.86,0.39-2.55,1.14
		c-0.68,0.75-1.07,1.8-1.17,3.15H157.83z"/>
	<path fill="#FFFFFF" d="M160.98,80.62h0.36v2.34h0.04c0.18-0.74,0.55-1.35,1.13-1.83c0.56-0.47,1.3-0.71,2.2-0.72
		c1,0,1.79,0.29,2.37,0.86c0.6,0.58,0.9,1.43,0.91,2.53v6.24h-0.36v-6.2c-0.01-1.09-0.3-1.87-0.86-2.36
		c-0.56-0.48-1.25-0.72-2.07-0.72c-1.11,0.02-1.94,0.41-2.51,1.17c-0.57,0.77-0.86,1.69-0.86,2.77v5.34h-0.36V80.62z"/>
	<path fill="#FFFFFF" d="M172.31,80.98v7.24c0.01,0.68,0.16,1.09,0.43,1.25c0.13,0.09,0.28,0.15,0.42,0.17
		c0.13,0.04,0.26,0.05,0.4,0.05c0.39,0,0.66-0.02,0.79-0.05v0.36c-0.1,0-0.2,0.01-0.31,0.02c-0.11,0.02-0.3,0.03-0.58,0.03
		c-0.42,0-0.77-0.13-1.05-0.39c-0.13-0.15-0.24-0.33-0.31-0.55c-0.1-0.22-0.15-0.5-0.15-0.83v-7.3h-1.71v-0.36h1.71v-2.96h0.36v2.96
		h2.09v0.36H172.31z"/>
	<path fill="#FFFFFF" d="M177.22,90.04h-0.36v-9.42h0.36v2.32h0.04c0.16-0.71,0.54-1.32,1.13-1.82c0.57-0.5,1.41-0.74,2.49-0.71
		v0.36c-1.26-0.02-2.18,0.36-2.77,1.14c-0.6,0.8-0.9,1.73-0.9,2.81V90.04z"/>
	<path fill="#FFFFFF" d="M182.54,85.41c0.01,1.3,0.3,2.36,0.86,3.19c0.57,0.86,1.5,1.3,2.79,1.31c2-0.01,3.2-1.06,3.61-3.13h0.36
		c-0.14,1.09-0.56,1.94-1.26,2.55c-0.71,0.61-1.6,0.93-2.68,0.94c-1.42-0.01-2.44-0.48-3.07-1.41c-0.66-0.92-0.99-2.09-0.97-3.52
		c0.02-1.59,0.44-2.81,1.26-3.65c0.78-0.85,1.71-1.28,2.78-1.28c1.44,0.02,2.49,0.53,3.14,1.52c0.66,0.98,0.96,2.14,0.9,3.48H182.54
		z M189.91,85.05c0.01-1.2-0.29-2.22-0.9-3.04c-0.62-0.82-1.54-1.24-2.75-1.25c-1.01,0.01-1.86,0.39-2.55,1.14
		c-0.68,0.75-1.07,1.8-1.17,3.15H189.91z"/>
</g>
<path fill="#FFFFFF" d="M-212.44,138.04L-212.44,138.04c-0.28,0-0.52-0.23-0.52-0.52V37.54c0-0.28,0.23-0.52,0.52-0.52l0,0
	c0.28,0,0.52,0.23,0.52,0.52v99.98C-211.93,137.81-212.16,138.04-212.44,138.04z"/>
</svg>
