<svg version="1.2" baseProfile="tiny" id="Layer_1" xmlns="http://www.w3.org/2000/svg" xmlns:xlink="http://www.w3.org/1999/xlink"
	 x="0px" y="0px" viewBox="0 0 110 112" overflow="visible" xml:space="preserve">
<g>
	<path fill="#FFFFFF" d="M22.57,12.24L76.78,2.18l31.23,16.87c0.08,0.04,0.03,0.15-0.06,0.13l-31.76-9.14
		c-0.14-0.04-0.27,0.05-0.28,0.19l-0.39,49.66l-7.68,1.07v-5.03L42.71,39.69l-20.35,4.29L22.57,12.24z"/>
	<path fill="#FFFFFF" d="M49.32,64.19l-0.27,35.07l35.96-8.32l-0.08-28.32c0-0.11,0.12-0.19,0.23-0.16l19.67,5.04l-19.71-9.48
		L49.32,64.19z"/>
	<path fill="#FFFFFF" d="M2.67,47.55l40.04-7.87l25.14,16.24l-25.41-8.38c-0.12-0.04-0.25,0.04-0.26,0.17l-0.42,53.34l-39.8,8.77
		L2.67,47.55z"/>
</g>
</svg>
